<svg width="14" height="13" viewBox="0 0 14 13" fill="none" xmlns="http://www.w3.org/2000/svg">
<path d="M9.35156 3.6875H12.6875V11.5625H1.3125V3.6875H4.62109L5.27734 1.9375H8.69531L9.35156 3.6875ZM8.85938 0.625H5.27734C4.73047 0.625 4.23828 0.980469 4.04688 1.5L3.71875 2.375H1.3125C0.574219 2.375 0 2.97656 0 3.6875V11.5625C0 12.3008 0.574219 12.875 1.3125 12.875H12.6875C13.3984 12.875 14 12.3008 14 11.5625V3.6875C14 2.97656 13.3984 2.375 12.6875 2.375H10.2812L9.87109 1.33594C9.70703 0.925781 9.32422 0.625 8.85938 0.625ZM7 10.9062C8.80469 10.9062 10.2812 9.45703 10.2812 7.625C10.2812 5.82031 8.80469 4.34375 7 4.34375C5.16797 4.34375 3.71875 5.82031 3.71875 7.625C3.71875 9.45703 5.16797 10.9062 7 10.9062ZM7 5.65625C8.06641 5.65625 8.96875 6.55859 8.96875 7.625C8.96875 8.71875 8.06641 9.59375 7 9.59375C5.90625 9.59375 5.03125 8.71875 5.03125 7.625C5.03125 6.55859 5.90625 5.65625 7 5.65625Z" fill="#12151D" fill-opacity="0.6"/>
</svg>
