<svg width="18" height="5" viewBox="0 0 18 5" fill="none" xmlns="http://www.w3.org/2000/svg">
<path d="M10.875 2.5C10.875 1.48438 10.0156 0.625 9 0.625C7.94531 0.625 7.125 1.48438 7.125 2.5C7.125 3.55469 7.94531 4.375 9 4.375C10.0156 4.375 10.875 3.55469 10.875 2.5ZM15.5625 0.625C14.5078 0.625 13.6875 1.48438 13.6875 2.5C13.6875 3.55469 14.5078 4.375 15.5625 4.375C16.5781 4.375 17.4375 3.55469 17.4375 2.5C17.4375 1.48438 16.5781 0.625 15.5625 0.625ZM2.4375 0.625C1.38281 0.625 0.5625 1.48438 0.5625 2.5C0.5625 3.55469 1.38281 4.375 2.4375 4.375C3.45312 4.375 4.3125 3.55469 4.3125 2.5C4.3125 1.48438 3.45312 0.625 2.4375 0.625Z" fill="#12151D" fill-opacity="0.6"/>
</svg>
