<svg width="12" height="16" viewBox="0 0 12 16" fill="none" xmlns="http://www.w3.org/2000/svg">
<path d="M6 0C2.46875 3.1875 0 6.90625 0 9.40625C0 13.3125 2.4375 16 6 16C9.53125 16 12 13.3125 12 9.40625C12 6.90625 9.46875 3.15625 6 0ZM6 14.5C3.28125 14.5 1.5 12.4688 1.5 9.40625C1.5 7.96875 2.90625 5.125 5.96875 2.09375C8.6875 4.75 10.5 7.65625 10.5 9.40625C10.5 12.4688 8.6875 14.5 6 14.5ZM7.40625 7.5C6.78125 6.96875 6.1875 6.46875 6.1875 5.6875C6.1875 5.59375 6.09375 5.53125 6.0625 5.53125C6 5.5 5.875 5.5 5.8125 5.59375C4.09375 7.9375 6.75 7.75 6.75 9.4375C6.75 10.1875 6.15625 10.75 5.4375 10.75C4.6875 10.75 4.125 10.1875 4.125 9.4375V8.5C4.09375 8.40625 4.03125 8.34375 3.9375 8.34375C3.875 8.34375 3.8125 8.34375 3.78125 8.375C3.59375 8.5625 3 9.21875 3 10.25C3 11.7812 4.34375 13 6 13C7.625 13 9 11.7812 9 10.25C9 8.875 8.1875 8.1875 7.40625 7.5Z" fill="#12151D" fill-opacity="0.6"/>
</svg>
