<svg width="16" height="11" viewBox="0 0 16 11" fill="none" xmlns="http://www.w3.org/2000/svg">
<path d="M14.8477 1.375C14.6836 1.375 14.5195 1.42969 14.3555 1.53906L11.375 3.42578V1.8125C11.375 1.10156 10.7188 0.5 9.95312 0.5H1.39453C0.628906 0.5 0 1.10156 0 1.8125V9.71484C0 10.4258 0.628906 11 1.39453 11H9.95312C10.7188 11 11.375 10.4258 11.375 9.71484V8.10156L14.3555 9.98828C14.5195 10.0977 14.6836 10.125 14.8477 10.125C15.3125 10.125 15.75 9.76953 15.75 9.27734V2.25C15.75 1.73047 15.3125 1.375 14.8477 1.375ZM10.0625 4.21875V9.66016C10.0352 9.6875 10.0078 9.6875 9.95312 9.6875H1.39453C1.33984 9.6875 1.3125 9.6875 1.3125 9.66016V1.86719C1.3125 1.83984 1.33984 1.8125 1.39453 1.8125H9.95312C10.0078 1.8125 10.0352 1.83984 10.0625 1.86719V4.21875ZM14.4375 8.48438L11.375 6.57031V4.95703L14.4375 3.04297V8.48438Z" fill="#12151D" fill-opacity="0.6"/>
</svg>
